# xmcd
#
# Track frame offsets:
#        150
#        17752
#        33900
#        51672
#        65122
#        85020
#        100657
#        118447
#        135617
#        155382
#        173162
#        190102
#        209317
#        230022
#
# Disc length: 3349 seconds
#
# Revision: 5
# Processed by: cddbd v1.5.1PL0 Copyright (c) Steve Scherf et al.
# Submitted via: ExactAudioCopy v0.95b3
#
DISCID=c30d130e
DTITLE=Backstreet Boys - Millennium
DYEAR=1999
DGENRE=Pop
TTITLE0=Larger Than Life
TTITLE1=I Want it That Way
TTITLE2=Show Me the Meaning of Being Lonely
TTITLE3=It's Gotta Be You
TTITLE4=I Need You Tonight
TTITLE5=Don't Want You Back
TTITLE6=Don't Wanna Lose You Now
TTITLE7=The One
TTITLE8=Back to Your Heart
TTITLE9=Spanish Eyes
TTITLE10=No One Else Comes Close
TTITLE11=The Perfect Fan
TTITLE12=I'll Be There For You
TTITLE13=You Wrote the Book on Love
EXTD=
EXTT0=
EXTT1=
EXTT2=
EXTT3=
EXTT4=
EXTT5=
EXTT6=
EXTT7=
EXTT8=
EXTT9=
EXTT10=
EXTT11=
EXTT12=
EXTT13=
PLAYORDER=
